<svg xmlns="http://www.w3.org/2000/svg" viewBox="0 0 512 512">
  <rect width="512" height="512" rx="112" fill="#1A2F4C" />
  <path d="M410.2 268l-155-73.8L255.4 79c0-11-8.9-20-20-20s-20 8.9-20 20v115.1l-155 73.8c-7 3.3-11.6 10.4-11.6 18.2v35.5c0 8.4 8.7 13.9 16.5 10.7l150.1-61.9V380l-45.7 34.3c-2.3 1.7-3.7 4.5-3.7 7.4v31.4c0 7.8 8.1 12.8 15 9.3l49.5-25 49.5 25c6.9 3.5 15-1.5 15-9.3v-31.4c0-2.9-1.4-5.7-3.7-7.4L245.5 380V270.4l150.1 61.9c7.8 3.2 16.5-2.4 16.5-10.7v-35.4c0-7.8-4.6-14.8-11.9-18.2z" fill="#C29B57" />
</svg>
